<svg xmlns="http://www.w3.org/2000/svg" viewBox="0 0 180 180" width="180" height="180" fill="none" stroke-linecap="round" stroke-linejoin="round">
  <defs>
    <linearGradient id="gold" x1="0%" y1="0%" x2="0%" y2="100%">
      <stop offset="0%" stop-color="#D4AF37"/>
      <stop offset="50%" stop-color="#B8860B"/>
      <stop offset="100%" stop-color="#996515"/>
    </linearGradient>
  </defs>
  <rect width="180" height="180" rx="40" fill="url(#gold)"/>
  <g transform="translate(30,30) scale(5)">
    <circle cx="12" cy="12" r="10" stroke="#fff" stroke-width="1.5" opacity="0.85"/>
    <path d="M11 7a16 16 20 0 1 10.98 4.362" stroke="#fff" stroke-width="1.5" opacity="0.85"/>
    <path d="M12 12a13 13 0 0 1-8.66 5" stroke="#fff" stroke-width="1.5" opacity="0.85"/>
    <path d="M16.83 13.634a16 16 0 0 1-9.267 7.328" stroke="#fff" stroke-width="1.5" opacity="0.85"/>
    <path d="M20.66 17A13 13 0 0 0 12 12a13 13 0 0 1 0-10" stroke="#fff" stroke-width="1.5" opacity="0.85"/>
    <path d="M8.17 15.366a16 16 0 0 1-1.713-11.69" stroke="#fff" stroke-width="1.5" opacity="0.85"/>
  </g>
</svg>
